<mxfile host="app.diagrams.net" modified="2023-10-31T21:43:29.275Z" agent="Mozilla/5.0 (Macintosh; Intel Mac OS X 10_15_7) AppleWebKit/537.36 (KHTML, like Gecko) Chrome/118.0.0.0 Safari/537.36" version="22.0.8" etag="lvUOBivTdgz_N7146Cau" type="github">
  <diagram name="Page-1" id="ffY4H0oOjc13Z_vTVTE5">
    <mxGraphModel>
      <root>
        <mxCell id="0" />
        <mxCell id="1" parent="0" />
      </root>
    </mxGraphModel>
  </diagram>
</mxfile>
